<svg xmlns="http://www.w3.org/2000/svg" viewBox="0 0 512 512"><defs><filter id="s" x="-30%" y="-30%" width="160%" height="160%"><feDropShadow dx="0" dy="12" stdDeviation="12" flood-color="#d8d2c8" flood-opacity=".35"/></filter></defs><rect width="512" height="512" rx="54" fill="#fffdf9"/><g filter="url(#s)"><circle cx="210" cy="208" r="24" fill="#2f2442" stroke="none" stroke-width="0"/><circle cx="203" cy="200" r="6" fill="#67547c" stroke="none" stroke-width="0"/><circle cx="250" cy="190" r="24" fill="#2f2442" stroke="none" stroke-width="0"/><circle cx="243" cy="182" r="6" fill="#67547c" stroke="none" stroke-width="0"/><circle cx="285" cy="220" r="24" fill="#2f2442" stroke="none" stroke-width="0"/><circle cx="278" cy="212" r="6" fill="#67547c" stroke="none" stroke-width="0"/><circle cx="190" cy="250" r="24" fill="#2f2442" stroke="none" stroke-width="0"/><circle cx="183" cy="242" r="6" fill="#67547c" stroke="none" stroke-width="0"/><circle cx="232" cy="250" r="24" fill="#2f2442" stroke="none" stroke-width="0"/><circle cx="225" cy="242" r="6" fill="#67547c" stroke="none" stroke-width="0"/><circle cx="275" cy="260" r="24" fill="#2f2442" stroke="none" stroke-width="0"/><circle cx="268" cy="252" r="6" fill="#67547c" stroke="none" stroke-width="0"/><circle cx="220" cy="300" r="24" fill="#2f2442" stroke="none" stroke-width="0"/><circle cx="213" cy="292" r="6" fill="#67547c" stroke="none" stroke-width="0"/><circle cx="263" cy="310" r="24" fill="#2f2442" stroke="none" stroke-width="0"/><circle cx="256" cy="302" r="6" fill="#67547c" stroke="none" stroke-width="0"/><circle cx="305" cy="295" r="24" fill="#2f2442" stroke="none" stroke-width="0"/><circle cx="298" cy="287" r="6" fill="#67547c" stroke="none" stroke-width="0"/><line x1="255" y1="145" x2="246" y2="190" stroke="#6a7a48" stroke-width="10" stroke-linecap="round"/><path d="M214 161 C176 135 147 148 141 179 C172 187 195 182 218 170 Z" fill="#567946" stroke="none" stroke-width="0" stroke-linecap="round" stroke-linejoin="round"/></g></svg>