<svg xmlns="http://www.w3.org/2000/svg" viewBox="0 0 512 512"><defs><filter id="s" x="-30%" y="-30%" width="160%" height="160%"><feDropShadow dx="0" dy="12" stdDeviation="12" flood-color="#d8d2c8" flood-opacity=".35"/></filter></defs><rect width="512" height="512" rx="54" fill="#fffdf9"/><g filter="url(#s)"><path d="M253 188 C217 120 151 123 143 180 C188 178 220 197 248 224 Z" fill="#6d6cc8" stroke="#4f4c9c" stroke-width="4" stroke-linecap="round" stroke-linejoin="round"/><path d="M258 188 C286 123 352 125 367 180 C322 181 289 198 263 224 Z" fill="#756ed0" stroke="#4f4c9c" stroke-width="4" stroke-linecap="round" stroke-linejoin="round"/><path d="M256 198 C220 214 194 252 209 295 C234 276 248 253 256 227 C267 255 281 278 306 295 C321 252 294 214 256 198 Z" fill="#8f82dd" stroke="#4f4c9c" stroke-width="4" stroke-linecap="round" stroke-linejoin="round"/><path d="M257 223 L257 390" fill="none" stroke="#668b59" stroke-width="12" stroke-linecap="round" stroke-linejoin="round"/><circle cx="256" cy="212" r="16" fill="#e5c36b" stroke="none" stroke-width="0"/></g></svg>