<svg xmlns="http://www.w3.org/2000/svg" viewBox="0 0 512 512"><defs><filter id="s" x="-30%" y="-30%" width="160%" height="160%"><feDropShadow dx="0" dy="12" stdDeviation="12" flood-color="#d8d2c8" flood-opacity=".35"/></filter></defs><rect width="512" height="512" rx="54" fill="#fffdf9"/><g filter="url(#s)"><path d="M239 112 C245 184 243 228 233 276" fill="none" stroke="#769164" stroke-width="14" stroke-linecap="round" stroke-linejoin="round"/><path d="M221 276 C207 322 180 348 152 392 M236 272 C231 334 224 360 214 405 M250 276 C271 329 292 359 319 397 M263 266 C298 306 337 337 366 367" fill="none" stroke="#ad8b59" stroke-width="14" stroke-linecap="round" stroke-linejoin="round"/><path d="M229 143 C194 127 171 136 163 163 C191 173 214 169 233 153 Z" fill="#769164" stroke="none" stroke-width="0" stroke-linecap="round" stroke-linejoin="round"/><path d="M248 179 C284 156 312 164 322 193 C291 204 268 202 247 190 Z" fill="#769164" stroke="none" stroke-width="0" stroke-linecap="round" stroke-linejoin="round"/></g></svg>